<svg width="59" height="58" viewBox="0 0 59 58" fill="none" xmlns="http://www.w3.org/2000/svg">
<circle cx="29.5699" cy="28.844" r="28.692" fill="#FF947A"/>
<path fill-rule="evenodd" clip-rule="evenodd" d="M20.0059 21.6709C20.0059 19.0299 22.1468 16.8889 24.7879 16.8889H31.9609V21.6709C31.9609 24.3119 34.1018 26.4529 36.7429 26.4529H39.1339V36.0169C39.1339 38.6579 36.9929 40.7989 34.3519 40.7989H24.7879C22.1468 40.7989 20.0059 38.6579 20.0059 36.0169V21.6709ZM24.7879 27.6484C24.1276 27.6484 23.5924 28.1837 23.5924 28.8439C23.5924 29.5042 24.1276 30.0394 24.7879 30.0394H27.1789C27.8391 30.0394 28.3744 29.5042 28.3744 28.8439C28.3744 28.1837 27.8391 27.6484 27.1789 27.6484H24.7879ZM24.7879 32.4304C24.1276 32.4304 23.5924 32.9656 23.5924 33.6259C23.5924 34.2862 24.1276 34.8214 24.7879 34.8214H29.5699C30.2301 34.8214 30.7654 34.2862 30.7654 33.6259C30.7654 32.9656 30.2301 32.4304 29.5699 32.4304H24.7879ZM35.1669 19.5176L35.0104 21.8656C34.9623 22.5873 35.5611 23.1861 36.2828 23.138L38.6308 22.9815C39.6557 22.9131 40.1229 21.6696 39.3967 20.9433L37.2051 18.7517C36.4788 18.0255 35.2353 18.4927 35.1669 19.5176Z" fill="white"/>
</svg>
