<svg width="69" height="69" viewBox="0 0 69 69" fill="none" xmlns="http://www.w3.org/2000/svg">
<circle cx="34.905" cy="34.8568" r="34.0798" fill="url(#paint0_linear_1655_9343)"/>
<path d="M36.9271 31.3132C36.0119 31.3132 35.3027 32.0224 35.3027 32.898C35.3027 33.7737 36.0119 34.4829 36.9271 34.4829C37.7631 34.4829 38.4723 33.7737 38.4723 32.898C38.4723 32.0224 37.7631 31.3132 36.9271 31.3132ZM25.8334 31.3132C24.9182 31.3132 24.209 32.0224 24.209 32.898C24.209 33.7737 24.9182 34.4829 25.8334 34.4829C26.6694 34.4829 27.3786 33.7737 27.3786 32.898C27.3786 32.0224 26.6694 31.3132 25.8334 31.3132Z" fill="#CD082B"/>
<path d="M49.6451 28.3021C47.7393 25.6872 45.0769 23.9399 42.1568 23.1515V23.1555C41.4793 22.4027 40.7147 21.7093 39.8589 21.0912C33.373 16.3764 24.2683 17.8146 19.5336 24.3005C15.7182 29.57 15.8806 36.6581 19.7714 41.6938L19.8031 46.9475C19.8031 47.0742 19.8229 47.201 19.8625 47.3199C20.0725 47.9895 20.7856 48.3579 21.4513 48.148L26.4672 46.5671C27.7945 47.0386 29.1653 47.308 30.5283 47.3833L30.5085 47.3991C34.0386 49.9705 38.6663 50.7431 42.9096 49.3405L47.9454 50.9808C48.0721 51.0204 48.2029 51.0442 48.3376 51.0442C49.0389 51.0442 49.6055 50.4776 49.6055 49.7763V44.4672C53.096 39.7286 53.1871 33.1794 49.6451 28.3021ZM27.0219 43.7541L26.5464 43.556L22.624 44.7842L22.5844 40.6637L22.2674 40.3071C18.9156 36.2183 18.6937 30.3267 21.8316 26.0042C25.651 20.7663 32.9728 19.6094 38.1948 23.3892C43.4326 27.1967 44.5935 34.5067 40.8097 39.7128C37.6362 44.0671 31.9546 45.6756 27.0219 43.7541ZM47.0301 43.0805L46.7132 43.4767L46.7528 47.5972L42.87 46.2898L42.3946 46.4879C40.1758 47.312 37.8105 47.3793 35.6195 46.7652L35.6116 46.7612C38.5395 45.8619 41.1941 44.0393 43.1077 41.4165C46.1347 37.2444 46.626 32.0027 44.8669 27.5335L44.8906 27.5493C45.8019 28.2031 46.6379 29.0193 47.3471 30.0058C50.2235 33.952 50.0611 39.3245 47.0301 43.0805Z" fill="#CD082B"/>
<path d="M31.3803 31.3132C30.4651 31.3132 29.7559 32.0224 29.7559 32.898C29.7559 33.7737 30.4651 34.4829 31.3803 34.4829C32.2163 34.4829 32.9255 33.7737 32.9255 32.898C32.9255 32.0224 32.2163 31.3132 31.3803 31.3132Z" fill="#CD082B"/>
<defs>
<linearGradient id="paint0_linear_1655_9343" x1="61.3169" y1="0.776979" x2="34.905" y2="68.9366" gradientUnits="userSpaceOnUse">
<stop stop-color="#FFA3CF"/>
<stop offset="1" stop-color="#FFD5F3"/>
</linearGradient>
</defs>
</svg>
