<svg width="61" height="61" viewBox="0 0 61 61" fill="none" xmlns="http://www.w3.org/2000/svg">
<circle cx="30.3297" cy="30.5613" r="30.1266" fill="url(#paint0_linear_1658_10796)"/>
<g clip-path="url(#clip0_1658_10796)">
<path d="M48.2624 19.3535V41.7691H14.639V37.286H12.3975V17.1119H43.7793V19.3535H48.2624ZM39.2962 19.3535C39.2962 19.6687 39.3546 19.9606 39.4713 20.2291C39.5881 20.4976 39.7457 20.7311 39.9441 20.9296C40.1426 21.1281 40.382 21.2915 40.6621 21.4199C40.9423 21.5484 41.2342 21.6067 41.5378 21.5951V19.3535H39.2962ZM14.639 21.5951C14.9542 21.5951 15.2461 21.5367 15.5146 21.4199C15.7832 21.3032 16.0166 21.1456 16.2151 20.9471C16.4136 20.7486 16.577 20.5093 16.7055 20.2291C16.8339 19.9489 16.8923 19.657 16.8806 19.3535H14.639V21.5951ZM14.639 30.5613C15.2578 30.5613 15.8357 30.6781 16.3727 30.9115C16.9098 31.145 17.3884 31.4661 17.8087 31.8747C18.229 32.2833 18.5501 32.7562 18.7719 33.2932C18.9937 33.8302 19.1105 34.414 19.1221 35.0444H37.0546C37.0546 34.4257 37.1714 33.8478 37.4049 33.3107C37.6384 32.7737 37.9594 32.295 38.3681 31.8747C38.7767 31.4544 39.2495 31.1334 39.7865 30.9115C40.3236 30.6897 40.9073 30.573 41.5378 30.5613V23.8366C40.919 23.8366 40.3411 23.7199 39.8041 23.4864C39.267 23.2529 38.7883 22.9318 38.3681 22.5232C37.9478 22.1146 37.6267 21.6418 37.4049 21.1047C37.1831 20.5677 37.0663 19.9839 37.0546 19.3535H19.1221C19.1221 19.9723 19.0054 20.5502 18.7719 21.0872C18.5384 21.6242 18.2173 22.1029 17.8087 22.5232C17.4001 22.9435 16.9273 23.2646 16.3902 23.4864C15.8532 23.7082 15.2695 23.8249 14.639 23.8366V30.5613ZM41.5378 32.8029C41.2225 32.8029 40.9307 32.8612 40.6621 32.978C40.3936 33.0947 40.1601 33.2523 39.9617 33.4508C39.7632 33.6493 39.5997 33.8886 39.4713 34.1688C39.3429 34.449 39.2845 34.7409 39.2962 35.0444H41.5378V32.8029ZM14.639 35.0444H16.8806C16.8806 34.7292 16.8222 34.4373 16.7055 34.1688C16.5887 33.9003 16.4311 33.6668 16.2326 33.4683C16.0342 33.2699 15.7948 33.1064 15.5146 32.978C15.2344 32.8496 14.9426 32.7912 14.639 32.8029V35.0444ZM46.0209 21.5951H43.7793V37.286H16.8806V39.5275H46.0209V21.5951ZM20.2429 28.3197C19.9394 28.3197 19.6767 28.2088 19.4549 27.987C19.2331 27.7652 19.1221 27.5025 19.1221 27.199C19.1221 26.8954 19.2331 26.6327 19.4549 26.4109C19.6767 26.1891 19.9394 26.0782 20.2429 26.0782C20.5465 26.0782 20.8092 26.1891 21.031 26.4109C21.2528 26.6327 21.3637 26.8954 21.3637 27.199C21.3637 27.5025 21.2528 27.7652 21.031 27.987C20.8092 28.2088 20.5465 28.3197 20.2429 28.3197ZM35.9339 28.3197C35.6303 28.3197 35.3676 28.2088 35.1458 27.987C34.924 27.7652 34.8131 27.5025 34.8131 27.199C34.8131 26.8954 34.924 26.6327 35.1458 26.4109C35.3676 26.1891 35.6303 26.0782 35.9339 26.0782C36.2374 26.0782 36.5001 26.1891 36.7219 26.4109C36.9437 26.6327 37.0546 26.8954 37.0546 27.199C37.0546 27.5025 36.9437 27.7652 36.7219 27.987C36.5001 28.2088 36.2374 28.3197 35.9339 28.3197ZM28.0884 32.8029C27.4696 32.8029 26.8917 32.6861 26.3547 32.4526C25.8176 32.2191 25.339 31.8981 24.9187 31.4895C24.4984 31.0808 24.1773 30.608 23.9555 30.071C23.7337 29.5339 23.6169 28.9502 23.6053 28.3197V26.0782C23.6053 25.4594 23.722 24.8815 23.9555 24.3445C24.189 23.8074 24.5101 23.3288 24.9187 22.9085C25.3273 22.4882 25.8001 22.1671 26.3372 21.9453C26.8742 21.7235 27.458 21.6067 28.0884 21.5951C28.7072 21.5951 29.2851 21.7118 29.8221 21.9453C30.3591 22.1788 30.8378 22.4999 31.2581 22.9085C31.6784 23.3171 31.9994 23.7899 32.2213 24.327C32.4431 24.864 32.5598 25.4477 32.5715 26.0782V28.3197C32.5715 28.9385 32.4548 29.5164 32.2213 30.0535C31.9878 30.5905 31.6667 31.0692 31.2581 31.4895C30.8495 31.9097 30.3767 32.2308 29.8396 32.4526C29.3026 32.6744 28.7188 32.7912 28.0884 32.8029ZM25.8468 28.3197C25.8468 28.635 25.9052 28.9268 26.022 29.1954C26.1387 29.4639 26.2963 29.6974 26.4948 29.8958C26.6933 30.0943 26.9326 30.2578 27.2128 30.3862C27.493 30.5146 27.7848 30.573 28.0884 30.5613C28.4036 30.5613 28.6955 30.5029 28.964 30.3862C29.2325 30.2694 29.466 30.1118 29.6645 29.9134C29.863 29.7149 30.0264 29.4755 30.1548 29.1954C30.2833 28.9152 30.3416 28.6233 30.33 28.3197V26.0782C30.33 25.763 30.2716 25.4711 30.1548 25.2026C30.0381 24.9341 29.8805 24.7006 29.682 24.5021C29.4835 24.3036 29.2442 24.1402 28.964 24.0117C28.6838 23.8833 28.3919 23.8249 28.0884 23.8366C27.7732 23.8366 27.4813 23.895 27.2128 24.0117C26.9443 24.1285 26.7108 24.2861 26.5123 24.4846C26.3138 24.683 26.1504 24.9224 26.022 25.2026C25.8935 25.4828 25.8352 25.7746 25.8468 26.0782V28.3197Z" fill="#5D1212"/>
</g>
<defs>
<linearGradient id="paint0_linear_1658_10796" x1="53.6778" y1="0.434694" x2="30.3297" y2="60.6879" gradientUnits="userSpaceOnUse">
<stop stop-color="#FFA3CF"/>
<stop offset="1" stop-color="#FFD5F3"/>
</linearGradient>
<clipPath id="clip0_1658_10796">
<rect width="35.865" height="35.865" fill="white" transform="translate(12.3975 12.6288)"/>
</clipPath>
</defs>
</svg>
