<svg width="69" height="69" viewBox="0 0 69 69" fill="none" xmlns="http://www.w3.org/2000/svg">
<circle cx="34.2575" cy="34.8568" r="34.0798" fill="url(#paint0_linear_1655_9354)"/>
<path d="M49.3271 21.874H41.039C39.2604 21.874 37.5216 22.3721 36.0255 23.3116L34.2578 24.4171L32.49 23.3116C30.9955 22.3722 29.2548 21.8731 27.4766 21.874H19.1885C18.5473 21.874 18.0293 22.3791 18.0293 23.0043V43.0667C18.0293 43.6918 18.5473 44.1969 19.1885 44.1969H27.4766C29.2552 44.1969 30.994 44.695 32.49 45.6345L34.0984 46.6447C34.1455 46.6729 34.1998 46.6906 34.2542 46.6906C34.3085 46.6906 34.3628 46.6765 34.4099 46.6447L36.0183 45.6345C37.518 44.695 39.2604 44.1969 41.039 44.1969H49.3271C49.9683 44.1969 50.4863 43.6918 50.4863 43.0667V23.0043C50.4863 22.3791 49.9683 21.874 49.3271 21.874ZM27.4766 41.6538H20.6374V24.4171H27.4766C28.7589 24.4171 30.005 24.7739 31.0809 25.4485L32.8487 26.5541L33.0986 26.713V43.0313C31.3743 42.1271 29.4472 41.6538 27.4766 41.6538ZM47.8781 41.6538H41.039C39.0684 41.6538 37.1412 42.1271 35.417 43.0313V26.713L35.6669 26.5541L37.4346 25.4485C38.5105 24.7739 39.7566 24.4171 41.039 24.4171H47.8781V41.6538ZM30.0884 28.9382H23.3579C23.2166 28.9382 23.1007 29.0583 23.1007 29.2031V30.7926C23.1007 30.9374 23.2166 31.0575 23.3579 31.0575H30.0847C30.226 31.0575 30.3419 30.9374 30.3419 30.7926V29.2031C30.3456 29.0583 30.2296 28.9382 30.0884 28.9382ZM38.17 29.2031V30.7926C38.17 30.9374 38.2859 31.0575 38.4272 31.0575H45.154C45.2953 31.0575 45.4112 30.9374 45.4112 30.7926V29.2031C45.4112 29.0583 45.2953 28.9382 45.154 28.9382H38.4272C38.2859 28.9382 38.17 29.0583 38.17 29.2031ZM30.0884 33.8832H23.3579C23.2166 33.8832 23.1007 34.0033 23.1007 34.1481V35.7375C23.1007 35.8824 23.2166 36.0024 23.3579 36.0024H30.0847C30.226 36.0024 30.3419 35.8824 30.3419 35.7375V34.1481C30.3456 34.0033 30.2296 33.8832 30.0884 33.8832ZM45.1577 33.8832H38.4272C38.2859 33.8832 38.17 34.0033 38.17 34.1481V35.7375C38.17 35.8824 38.2859 36.0024 38.4272 36.0024H45.154C45.2953 36.0024 45.4112 35.8824 45.4112 35.7375V34.1481C45.4149 34.0033 45.2989 33.8832 45.1577 33.8832Z" fill="black"/>
<defs>
<linearGradient id="paint0_linear_1655_9354" x1="60.6694" y1="0.776979" x2="34.2575" y2="68.9366" gradientUnits="userSpaceOnUse">
<stop stop-color="#DDAE18"/>
<stop offset="1" stop-color="#B9DDED"/>
</linearGradient>
</defs>
</svg>
