<svg width="69" height="69" viewBox="0 0 69 69" fill="none" xmlns="http://www.w3.org/2000/svg">
<circle cx="34.3064" cy="34.4225" r="34.0798" fill="url(#paint0_linear_1655_9325)"/>
<path d="M27.4483 50.4982C24.0687 50.4982 21.2998 48.0416 21.2998 45.017V42.1202C21.2998 41.538 21.7826 41.0552 22.3648 41.0552C22.947 41.0552 23.4298 41.538 23.4298 42.1202C23.4298 43.8952 25.1479 45.23 27.4483 45.23C29.7487 45.23 31.4669 43.8952 31.4669 42.1202C31.4669 41.538 31.9497 41.0552 32.5319 41.0552C33.1141 41.0552 33.5969 41.538 33.5969 42.1202V45.017C33.5969 48.0416 30.8421 50.4982 27.4483 50.4982ZM23.7989 46.4086C24.4237 47.573 25.8295 48.3682 27.4483 48.3682C29.0671 48.3682 30.4729 47.5588 31.0977 46.4086C30.0895 47.0192 28.8399 47.3742 27.4483 47.3742C26.0567 47.3742 24.8071 47.0192 23.7989 46.4086Z" fill="#0F5FC2"/>
<path d="M27.4483 43.469C25.1195 43.469 23.0322 42.404 21.9956 40.7142C21.5412 39.9758 21.2998 39.1096 21.2998 38.2292C21.2998 36.7382 21.953 35.3466 23.1458 34.31C25.4462 32.2937 29.4079 32.2937 31.7225 34.296C32.9153 35.3468 33.5827 36.7382 33.5827 38.2292C33.5827 39.1096 33.3413 39.9758 32.8869 40.7142C31.8645 42.404 29.7771 43.469 27.4483 43.469ZM27.4483 34.8782C26.3407 34.8782 25.3184 35.2472 24.5516 35.9146C23.8274 36.5394 23.4298 37.363 23.4298 38.2292C23.4298 38.7262 23.5575 39.1807 23.8131 39.6067C24.4663 40.6859 25.8579 41.3533 27.4483 41.3533C29.0387 41.3533 30.4303 40.6859 31.0693 39.6209C31.3249 39.2091 31.4527 38.7405 31.4527 38.2435C31.4527 37.3773 31.0551 36.5536 30.3309 35.9146C29.5783 35.2472 28.5559 34.8782 27.4483 34.8782Z" fill="#0F5FC2"/>
<path d="M27.4483 47.3748C23.9409 47.3748 21.2998 45.117 21.2998 42.135V38.2301C21.2998 35.2055 24.0545 32.7489 27.4483 32.7489C29.0529 32.7489 30.5865 33.3027 31.7367 34.2967C32.9295 35.3475 33.5969 36.7391 33.5969 38.2301V42.135C33.5969 45.117 30.9557 47.3748 27.4483 47.3748ZM27.4483 34.8789C25.2331 34.8789 23.4298 36.3841 23.4298 38.2301V42.135C23.4298 43.91 25.1479 45.2448 27.4483 45.2448C29.7487 45.2448 31.4669 43.91 31.4669 42.135V38.2301C31.4669 37.3639 31.0694 36.5403 30.3452 35.9013C29.5784 35.2481 28.5559 34.8789 27.4483 34.8789Z" fill="#0F5FC2"/>
<path d="M44.3036 39.2101C42.1594 39.2101 40.3418 37.6197 40.1714 35.575C40.0578 34.3964 40.4838 33.2462 41.3358 32.4084C42.0458 31.67 43.054 31.2582 44.119 31.2582H47.0868C48.4925 31.3008 49.5717 32.4084 49.5717 33.7716V36.6967C49.5717 38.0599 48.4925 39.1675 47.1294 39.2101H44.3036ZM47.0442 33.3882H44.1332C43.6362 33.3882 43.1818 33.5728 42.8552 33.9136C42.4434 34.3112 42.2446 34.8508 42.3014 35.3904C42.3724 36.3276 43.2812 37.0801 44.3036 37.0801H47.0868C47.2714 37.0801 47.4418 36.9097 47.4418 36.6967V33.7716C47.4418 33.5586 47.2714 33.4024 47.0442 33.3882Z" fill="#0F5FC2"/>
<path d="M39.9864 48.3687H36.4364C35.8542 48.3687 35.3714 47.8859 35.3714 47.3037C35.3714 46.7215 35.8542 46.2387 36.4364 46.2387H39.9864C43.65 46.2387 46.0214 43.8674 46.0214 40.2038V39.2098H44.3032C42.159 39.2098 40.3414 37.6194 40.171 35.5746C40.0574 34.396 40.4835 33.2458 41.3355 32.408C42.0455 31.6696 43.0536 31.2578 44.1186 31.2578H46.0072V30.2638C46.0072 26.9411 44.0619 24.6548 40.9095 24.2856C40.5687 24.2288 40.2704 24.2289 39.9722 24.2289H27.1923C26.8515 24.2289 26.5249 24.2573 26.1983 24.2999C23.0743 24.6974 21.1573 26.9695 21.1573 30.2638V33.1038C21.1573 33.686 20.6745 34.1688 20.0923 34.1688C19.5101 34.1688 19.0273 33.686 19.0273 33.1038V30.2638C19.0273 25.8903 21.7254 22.7237 25.9144 22.1983C26.2978 22.1415 26.7379 22.0989 27.1923 22.0989H39.9722C40.313 22.0989 40.7532 22.1131 41.2076 22.1841C45.3966 22.6669 48.1371 25.8477 48.1371 30.2638V32.3228C48.1371 32.905 47.6543 33.3878 47.0721 33.3878H44.1186C43.6216 33.3878 43.1673 33.5724 42.8407 33.9132C42.4289 34.3108 42.23 34.8504 42.2868 35.39C42.3578 36.3272 43.2667 37.0798 44.2891 37.0798H47.0863C47.6685 37.0798 48.1513 37.5626 48.1513 38.1448V40.2038C48.1513 45.0886 44.8712 48.3687 39.9864 48.3687Z" fill="#0F5FC2"/>
<defs>
<linearGradient id="paint0_linear_1655_9325" x1="60.7182" y1="0.342653" x2="34.3064" y2="68.5023" gradientUnits="userSpaceOnUse">
<stop stop-color="#CAF1FF"/>
<stop offset="1" stop-color="#CDF4FF"/>
</linearGradient>
</defs>
</svg>
