<?xml version="1.0" encoding="UTF-8" standalone="no"?><svg xmlns:svg="http://www.w3.org/2000/svg" xmlns="http://www.w3.org/2000/svg" xmlns:xlink="http://www.w3.org/1999/xlink" version="1.0" width="60px" height="60px" viewBox="0 0 128 128" xml:space="preserve"><rect x="0" y="0" width="100%" height="100%" fill="#FFF0" /><g><path d="M56.9-.1h15.17V37H56.9V-.1z" fill="#6231f4"/><path d="M56.9-.1h15.17V37H56.9V-.1z" fill="#efeafe" transform="rotate(30 64 64)"/><path d="M56.9-.1h15.17V37H56.9V-.1z" fill="#efeafe" transform="rotate(60 64 64)"/><path d="M56.9-.1h15.17V37H56.9V-.1z" fill="#efeafe" transform="rotate(90 64 64)"/><path d="M56.9-.1h15.17V37H56.9V-.1z" fill="#e1d7fd" transform="rotate(120 64 64)"/><path d="M56.9-.1h15.17V37H56.9V-.1z" fill="#d3c5fc" transform="rotate(150 64 64)"/><path d="M56.9-.1h15.17V37H56.9V-.1z" fill="#c4b1fb" transform="rotate(180 64 64)"/><path d="M56.9-.1h15.17V37H56.9V-.1z" fill="#b6a0fa" transform="rotate(210 64 64)"/><path d="M56.9-.1h15.17V37H56.9V-.1z" fill="#a88df9" transform="rotate(240 64 64)"/><path d="M56.9-.1h15.17V37H56.9V-.1z" fill="#9b7bf8" transform="rotate(270 64 64)"/><path d="M56.9-.1h15.17V37H56.9V-.1z" fill="#8c68f7" transform="rotate(300 64 64)"/><path d="M56.9-.1h15.17V37H56.9V-.1z" fill="#7e56f6" transform="rotate(330 64 64)"/><animateTransform attributeName="transform" type="rotate" values="0 64 64;30 64 64;60 64 64;90 64 64;120 64 64;150 64 64;180 64 64;210 64 64;240 64 64;270 64 64;300 64 64;330 64 64" calcMode="discrete" dur="840ms" repeatCount="indefinite"></animateTransform></g></svg>