<svg width="26" height="26" viewBox="0 0 26 26" fill="none" xmlns="http://www.w3.org/2000/svg">
<path d="M18.5192 10.4373C18.9206 10.8386 18.9206 11.4894 18.5192 11.8908C18.1178 12.2921 17.4671 12.2921 17.0657 11.8908L14.1973 9.02229V16.3053C14.1973 16.873 13.7371 17.3331 13.1695 17.3331C12.6018 17.3331 12.1417 16.873 12.1417 16.3053V9.02219L9.27113 11.8928C8.86976 12.2941 8.219 12.2941 7.81763 11.8928C7.41626 11.4914 7.41626 10.8406 7.81763 10.4393L12.4427 5.81421C12.6354 5.62147 12.8968 5.51318 13.1694 5.51318C13.442 5.51318 13.7034 5.62147 13.8962 5.81421L18.5192 10.4373Z" fill="#1A1D1F"/>
<path fill-rule="evenodd" clip-rule="evenodd" d="M4.94477 15.2773C5.5124 15.2773 5.97255 15.7375 5.97255 16.3051V18.3607C5.97255 18.9283 6.4327 19.3885 7.00033 19.3885H19.3337C19.9013 19.3885 20.3614 18.9283 20.3614 18.3607V16.3051C20.3614 15.7375 20.8216 15.2773 21.3892 15.2773C21.9568 15.2773 22.417 15.7375 22.417 16.3051V18.3607C22.417 20.0636 21.0365 21.444 19.3337 21.444H7.00033C5.29745 21.444 3.91699 20.0636 3.91699 18.3607V16.3051C3.91699 15.7375 4.37714 15.2773 4.94477 15.2773Z" fill="#1A1D1F"/>
</svg>
